<?xml version="1.0" encoding="utf-8"?>
<!-- Generator: Adobe Illustrator 18.1.1, SVG Export Plug-In . SVG Version: 6.00 Build 0)  -->
<svg version="1.1" id="Layer_1" xmlns="http://www.w3.org/2000/svg" xmlns:xlink="http://www.w3.org/1999/xlink" x="0px" y="0px"
	 viewBox="0 0 300 300" enable-background="new 0 0 300 300" xml:space="preserve">
<rect x="27.5" y="124.3" fill="none" stroke="#004B5F" stroke-width="20" width="150.7" height="150.7"/>
<g>
	<g>
		<g>
			<path fill="#FFB9AC" d="M66.2,210c0.3-0.2-0.2-1.6,1.3,0c4.8,5.3,7.3,10.6,12,16c0.3,0,0.6,0,0.8,0c1.6,2.2,3.2,4.5,4.9,6.9
				l0.3,0.4l0.4,0.6l1.3,1.7c0.8,1.1,1.7,2.3,2.6,3.4c1.7,2.3,3.5,4.6,5.3,7c2,2.5,4,4.9,6,7.4c5.6-6.7,11.2-13.3,16.7-19.9
				c2.9-3.5,5.8-7.1,8.7-10.6c-0.4,0.1-0.6,0,0-0.9c2.7-3.5,6.9-8,11.1-12.9c0.6-0.7,1.2-1.5,1.7-2.2c0.4-0.6,0.3-0.9,0.3-1.1
				c1.9-2.2,3.6-4.1,5.2-5.9c19.3-24.8,38.8-49.9,60-77.2c4.3-5.9,8.5-11.9,12.9-17.4c6.6-8.1,15.5-17.9,22.1-25.6
				c-2.8-0.3,12.4-19.9,7.4-17.6c4.4-5.1,11.1-12.8,10.9-13.6c-0.5-2.5,1.2-7.9,11.9-22.3c4.4-5.5,12-13.2,13.3-15.4
				c2.1-3.4-7,6.1-4.9,2.7c-34.4,39.4-66.4,78.2-100.5,118.3c-4,5.3-17.1,21.2-33.1,40.3c-8,9.5-16.7,19.9-25.4,30.2
				c-6.2,7.4-12.4,14.7-18,21.2c-2.8-3.6-5.4-6.9-7.7-9.7c-4.2-5.3-7.7-9.7-10.2-12.9c-0.6-0.7-1.2-1.5-1.8-2.2
				c-10.5-13.3-23.5-29.2-33.1-39.9c-4.5-4.8-9.2-9.6-13.9-14.4c1.6,2.7,3.1,5.1,4.4,7.3c-4.2-5.3-8.4-10.6-10.3-12.4
				c-9.8-10.6-5.6-3.5-3.3,1.8c2,3.5-2.2,0,1.1,5.3c-2.8-3.5-4.2-5.3-7-8.9c-0.8,0,9,10.6,6.2,8.9c-2.5-3.5-5.9-7.1-8.7-10.6
				c0.3,1.8,9.5,12.4,8.4,12.4c-1.7-1.8-7-10.6-8.4-10.6c-0.3,0,2.5,3.5,3.9,5.3c-8.9-10.6-14.5-16-7.5-5.3
				c-2.7-3.5-6.3-8.6-9.3-12.1c0,0,0,0,0,0c1.4,1.8,3.8,5.1,5.1,6.8c-1.6-2.1-3.3-4.1-4.9-6.2c0.1,0.4,0.3,0.9,0.5,1.4
				c1.1,1.6,2.3,3.2,3.6,4.9c-1.1-1.4-2.2-2.8-3.3-4.1c0.5,1.2,1.2,2.6,2,4.1c3.4,5.3,6.3,10.6,8.4,13.3
				C32.4,167,49.2,188.6,66.2,210z"/>
		</g>
	</g>
</g>
</svg>
