<?xml version="1.0" encoding="utf-8"?>
<!-- Generator: Adobe Illustrator 18.1.1, SVG Export Plug-In . SVG Version: 6.00 Build 0)  -->
<svg version="1.1" id="Layer_1" xmlns="http://www.w3.org/2000/svg" xmlns:xlink="http://www.w3.org/1999/xlink" x="0px" y="0px"
	 viewBox="0 0 300 300" enable-background="new 0 0 300 300" xml:space="preserve">
<rect x="48.1" y="115.5" fill="none" stroke="#0E1533" stroke-width="20" width="121" height="121"/>
<g>
	<g>
		<g>
			<path fill="#20C029" d="M77.7,185.6c0.3-0.2-0.1-1.4,1.2-0.1c3.9,4.2,5.7,8.7,9.6,12.9c0.3,0,0.5-0.1,0.8-0.1
				c0.6,0.9,1.3,1.8,1.9,2.8c0.3,0.5,0.7,0.9,1,1.4c0.7,0.9,1.3,1.8,2,2.7c2.7,3.7,5.5,7.4,8.3,11.1c1.6,2,3.2,4,4.8,5.9
				c4.7-5.6,9.3-11.1,14-16.7l2.7-3.3l1.7-2.1l3.5-4.3c-0.3,0-0.6,0-0.1-0.8c2.2-2.8,5.6-6.5,8.9-10.3c0.5-0.6,0.9-1.2,1.4-1.8
				c0.3-0.5,0.2-0.8,0.1-1c1.5-1.8,2.9-3.3,4.2-4.7c15.3-20.1,30.8-40.4,47.6-62.5c3.3-4.8,6.7-9.7,10.1-14.2
				c5.2-6.5,12.5-14.4,17.8-20.5c-2.6-0.5,9.5-16.4,5.1-14.9c3.6-4.1,8.9-10.3,8.7-11c-0.7-2.2,0.3-6.9,8.8-18.6
				c3.5-4.5,9.7-10.6,10.7-12.3c1.6-2.8-5.8,4.7-4.2,1.9c-27.7,31.5-53.3,62.8-80.7,95c-3.2,4.3-13.6,17.1-26.5,32.4
				c-6.4,7.7-13.4,16-20.3,24.3c-4.5,5.4-9,10.7-13,15.4c-1.8-2.3-3.4-4.3-4.8-6.1c-3.4-4.2-6.2-7.8-8.2-10.4
				c-0.5-0.6-1-1.2-1.4-1.7c-8.4-10.7-18.9-23.5-26.7-31.9c-3.7-3.8-7.6-7.6-11.4-11.3c1.3,2.2,2.4,4.2,3.4,6
				c-3.4-4.3-6.7-8.6-8.4-9.9c-8-8.4-4.8-2.6-3.2,1.9c1.5,2.9-2.1,0.2,0.5,4.6c-2.2-2.8-3.4-4.3-5.6-7.1c-0.8,0.1,7.2,8.5,4.8,7.2
				c-2-2.9-4.7-5.7-7-8.5c0.1,1.5,7.6,10,6.6,10.1c-1.4-1.4-5.4-8.7-6.7-8.6c-0.3,0,2,2.9,3.1,4.3c-7.2-8.5-11.9-12.6-6.4-4
				c-2.2-2.8-4.9-7-7.4-9.8c0,0,0,0,0,0c1.1,1.5,3,4.1,4,5.5c-1.3-1.7-2.6-3.3-3.9-5c0.1,0.4,0.2,0.7,0.3,1.2
				c0.9,1.3,1.8,2.6,2.8,3.9c-0.9-1.1-1.7-2.2-2.6-3.3c0.4,1,0.9,2.2,1.5,3.4c2.6,4.4,4.8,8.8,6.5,10.9
				C50.6,151,64,168.4,77.7,185.6z"/>
		</g>
	</g>
</g>
</svg>
